<?xml version="1.0" encoding="utf-8"?>
<!-- Generator: Adobe Illustrator 18.0.0, SVG Export Plug-In . SVG Version: 6.00 Build 0)  -->
<!DOCTYPE svg PUBLIC "-//W3C//DTD SVG 1.1//EN" "http://www.w3.org/Graphics/SVG/1.1/DTD/svg11.dtd">
<svg version="1.1" id="Layer_1" xmlns="http://www.w3.org/2000/svg" xmlns:xlink="http://www.w3.org/1999/xlink" x="0px" y="0px"
	 viewBox="0 0 200 200" enable-background="new 0 0 200 200" xml:space="preserve">
<path fill="#D34D36" d="M100,0C44.8,0,0,44.8,0,100c0,55.2,44.8,100,100,100c55.2,0,100-44.8,100-100C200,44.8,155.2,0,100,0z
	 M100.1,190.7c-50,0-90.6-40.5-90.6-90.6c0-50,40.5-90.6,90.6-90.6c50,0,90.6,40.5,90.6,90.6C190.7,150.1,150.1,190.7,100.1,190.7z"
	/>
<path fill-rule="evenodd" clip-rule="evenodd" fill="#D34D36" d="M57.2,63.8l7.1-7.1l78.5,78.5l-7.1,7.1L57.2,63.8z"/>
<path fill-rule="evenodd" clip-rule="evenodd" fill="#D34D36" d="M135.9,57l7.1,7.1L64.1,143l-7.1-7.1L135.9,57z"/>
</svg>
